HIERARCHY
ROOT joint_0
{
	OFFSET -212.520721 1.693376 434.227997
	CHANNELS 6 Xposition Yposition Zposition Zrotation Yrotation Xrotation 
	JOINT joint_1
	{
		OFFSET -0.120043 80.091011 -5.542230
		CHANNELS 3 Zrotation Yrotation Xrotation
		JOINT joint_2
		{
			OFFSET 0.103631 1.856078 10.546989
			CHANNELS 3 Zrotation Yrotation Xrotation
			JOINT joint_3
			{
				OFFSET 43.452103 -0.000025 -0.000008
				CHANNELS 3 Zrotation Yrotation Xrotation
				JOINT joint_4
				{
					OFFSET 42.284668 0.000006 -0.000008
					CHANNELS 3 Zrotation Yrotation Xrotation
					JOINT joint_5
					{
						OFFSET 17.325636 -0.000003 -0.000002
						CHANNELS 3 Zrotation Yrotation Xrotation
						End Site
						{
							OFFSET 0.000000 0.000000 0.000000
						}
					}
				}
			}
		}
		JOINT joint_6
		{
			OFFSET 0.103607 1.856031 -10.547115
			CHANNELS 3 Zrotation Yrotation Xrotation
			JOINT joint_7
			{
				OFFSET 43.449978 -0.000024 0.000008
				CHANNELS 3 Zrotation Yrotation Xrotation
				JOINT joint_8
				{
					OFFSET 42.289135 0.000006 0.000008
					CHANNELS 3 Zrotation Yrotation Xrotation
					JOINT joint_9
					{
						OFFSET 17.324396 -0.000003 0.000001
						CHANNELS 3 Zrotation Yrotation Xrotation
						End Site
						{
							OFFSET 0.000000 0.000000 0.000000
						}
					}
				}
			}
		}
		JOINT joint_10
		{
			OFFSET 6.903595 -2.606905 -0.000000
			CHANNELS 3 Zrotation Yrotation Xrotation
			JOINT joint_11
			{
				OFFSET 12.581512 0.000006 0.000000
				CHANNELS 3 Zrotation Yrotation Xrotation
				JOINT joint_12
				{
					OFFSET 12.324461 -0.000004 0.000000
					CHANNELS 3 Zrotation Yrotation Xrotation
					JOINT joint_13
					{
						OFFSET 25.812691 -0.000002 0.000001
						CHANNELS 3 Zrotation Yrotation Xrotation
						JOINT joint_14
						{
							OFFSET 11.740427 0.000002 0.000000
							CHANNELS 3 Zrotation Yrotation Xrotation
							End Site
							{
								OFFSET 0.000000 0.000000 0.000000
							}
						}
					}
					JOINT joint_15
					{
						OFFSET 19.728807 -1.480347 5.999590
						CHANNELS 3 Zrotation Yrotation Xrotation
						JOINT joint_16
						{
							OFFSET 11.304765 -0.000014 -0.000005
							CHANNELS 3 Zrotation Yrotation Xrotation
							JOINT joint_17
							{
								OFFSET 32.938362 0.000014 0.000013
								CHANNELS 3 Zrotation Yrotation Xrotation
								JOINT joint_18
								{
									OFFSET 25.224983 0.000081 -0.000191
									CHANNELS 3 Zrotation Yrotation Xrotation
									End Site
									{
										OFFSET 0.000000 0.000000 0.000000
									}
								}
							}
						}
					}
					JOINT joint_19
					{
						OFFSET 19.731703 -1.480350 -5.999634
						CHANNELS 3 Zrotation Yrotation Xrotation
						JOINT joint_20
						{
							OFFSET 11.303930 -0.000014 0.000007
							CHANNELS 3 Zrotation Yrotation Xrotation
							JOINT joint_21
							{
								OFFSET 32.944035 0.000013 -0.000013
								CHANNELS 3 Zrotation Yrotation Xrotation
								JOINT joint_22
								{
									OFFSET 25.228008 0.000080 0.000206
									CHANNELS 3 Zrotation Yrotation Xrotation
									End Site
									{
										OFFSET 0.000000 0.000000 0.000000
									}
								}
							}
						}
					}
				}
			}
		}
	}
}
MOTION
Frames: 16
Frame Time: 0.016667
-212.520721 1.693376 434.227997 0.000000 -8.332734 0.000000 89.377808 -8.777101 87.745918 170.508514 -5.118917 149.597641 -1.675471 3.567741 -54.264481 -3.833227 -0.164584 83.453499 0.000009 0.003101 21.484835 -171.037674 5.155184 152.381699 3.552656 -3.427159 -53.021214 5.477851 -0.873216 82.833549 -0.000009 -0.003100 21.482197 -0.089839 0.022411 8.643403 0.260687 -0.010714 7.279141 0.068254 0.201177 7.906968 1.435595 0.247694 4.087496 -1.584551 0.255892 -8.905026 -3.782866 -79.904076 -177.433884 21.086348 45.470619 -12.321459 1.003163 -12.168219 -53.151245 23.078814 -10.935305 4.026042 3.386278 80.077950 -178.025299 -20.333454 -44.058643 -10.565597 -1.679675 12.081512 -55.856251 -22.444464 11.132833 4.329526 
-212.679962 1.818989 435.713531 0.000000 -8.245269 0.000000 89.351151 -8.792589 87.744965 170.585846 -5.135237 149.609039 -1.760375 3.574619 -54.419731 -3.822566 -0.162805 83.489334 0.000009 0.003101 21.484867 -170.992416 5.159477 152.455261 3.555882 -3.440242 -53.151684 5.439470 -0.876093 82.919533 -0.000009 -0.003100 21.482117 -0.095620 0.032127 8.643984 0.248777 -0.029926 7.256973 0.081009 0.201840 7.926804 1.419386 0.246138 4.139994 -1.628815 0.200324 -8.915595 -3.979571 -79.929337 -177.235001 21.199455 45.445045 -12.307443 0.989984 -12.182528 -53.105606 23.015598 -10.923277 4.020498 3.362861 80.098961 -178.043091 -20.511238 -44.049679 -10.424946 -1.684960 12.063375 -55.872261 -22.356541 11.171861 4.307763 
-212.837555 1.954173 437.199646 0.000000 -8.151598 0.000000 89.323547 -8.793237 87.736115 170.660507 -5.114635 149.573242 -1.839611 3.580319 -54.485168 -3.804621 -0.155541 83.510216 0.000009 0.003101 21.484869 -170.932999 5.167127 152.521255 3.541534 -3.454758 -53.274860 5.395553 -0.874662 83.011551 -0.000009 -0.003100 21.482010 -0.105539 0.040979 8.647044 0.236726 -0.041703 7.224956 0.090538 0.195986 7.944404 1.428513 0.255827 4.168087 -1.682002 0.141366 -8.898178 -4.201801 -79.941765 -177.008392 21.289803 45.386719 -12.338296 0.944828 -12.180318 -52.995949 22.953077 -10.924062 4.009197 3.358804 80.111145 -178.040649 -20.669544 -44.060051 -10.306911 -1.683709 12.020844 -55.861729 -22.296894 11.200899 4.299355 
-212.992355 2.097776 438.682983 0.000000 -8.049643 0.000000 89.299927 -8.810028 87.750504 170.743805 -5.100043 149.539520 -1.935853 3.579848 -54.579918 -3.764339 -0.156089 83.569336 0.000009 0.003101 21.484913 -170.865158 5.175090 152.611053 3.528879 -3.476159 -53.395439 5.352377 -0.880197 83.103279 -0.000009 -0.003100 21.481901 -0.111372 0.054249 8.646375 0.223736 -0.053045 7.206120 0.101193 0.192980 7.967869 1.418928 0.269343 4.187391 -1.725123 0.085899 -8.927330 -4.379492 -79.974144 -176.828354 21.416775 45.377918 -12.328944 0.938203 -12.188135 -52.997211 22.853743 -10.944601 4.016152 3.351942 80.128418 -178.037430 -20.775185 -44.079800 -10.234893 -1.686660 11.991963 -55.882782 -22.179924 11.210365 4.268459 
-213.145477 2.246077 440.166046 0.000000 -7.942937 0.000000 89.277611 -8.837137 87.769058 170.854294 -5.120430 149.467590 -2.046824 3.575164 -54.687737 -3.724181 -0.154177 83.635712 0.000009 0.003101 21.484943 -170.828201 5.189107 152.635071 3.506264 -3.503895 -53.529518 5.311014 -0.878099 83.217163 -0.000009 -0.003100 21.481842 -0.114326 0.070707 8.647041 0.208672 -0.067716 7.203838 0.106819 0.193063 7.986851 1.387025 0.284401 4.246959 -1.764607 0.032406 -8.949600 -4.582524 -80.006439 -176.625626 21.535843 45.392197 -12.323812 0.946356 -12.194913 -53.014866 22.731438 -10.970813 4.023860 3.391811 80.138000 -177.989502 -20.858242 -44.096405 -10.216881 -1.679001 11.973816 -55.904667 -22.027925 11.259485 4.229989 
-213.294724 2.398862 441.652161 0.000000 -7.836031 0.000000 89.265488 -8.861145 87.754082 170.964264 -5.126987 149.341019 -2.131884 3.573173 -54.777565 -3.697839 -0.148677 83.682922 0.000009 0.003101 21.484869 -170.825897 5.218698 152.572128 3.483730 -3.537417 -53.689083 5.252638 -0.849948 83.385437 -0.000009 -0.003100 21.481831 -0.115730 0.087639 8.646873 0.191290 -0.080596 7.209800 0.105841 0.191399 7.997310 1.342726 0.302369 4.349825 -1.780116 -0.062026 -8.971461 -4.805737 -80.005928 -176.407288 21.572578 45.368999 -12.414102 0.913789 -12.193630 -52.920990 22.594431 -11.013643 4.034229 3.490173 80.121330 -177.885498 -20.948931 -44.081196 -10.229025 -1.653093 11.943787 -55.901211 -21.894192 11.319957 4.190949 
-213.436584 2.555131 443.138794 0.000000 -7.726793 0.000000 89.263283 -8.906794 87.774750 171.026199 -5.071000 149.246475 -2.233808 3.575344 -55.001965 -3.666636 -0.148205 83.782532 0.000009 0.003101 21.484848 -170.810272 5.238912 152.522903 3.457484 -3.564835 -53.770496 5.184190 -0.834441 83.515205 -0.000009 -0.003100 21.481855 -0.116362 0.095523 8.648018 0.169050 -0.096294 7.215807 0.099921 0.196417 7.996491 1.270916 0.352795 4.465035 -1.753097 -0.181477 -9.048535 -4.962966 -80.044960 -176.261414 21.519672 45.303768 -12.515166 0.891027 -12.194323 -52.883728 22.434326 -11.053297 4.052452 3.552438 80.104012 -177.814026 -20.921726 -44.096020 -10.284143 -1.610836 11.915295 -55.903259 -21.705080 11.351027 4.129755 
-213.573700 2.709421 444.623657 0.000000 -7.624330 0.000000 89.266464 -9.032976 87.791916 171.084839 -5.110123 149.201279 -2.446267 3.562418 -55.306133 -3.576180 -0.155243 83.896469 0.000009 0.003101 21.484840 -170.830017 5.248599 152.555176 3.410055 -3.592638 -53.812393 5.166354 -0.847604 83.588013 -0.000009 -0.003100 21.481993 -0.116076 0.108611 8.643909 0.123550 -0.136199 7.247457 0.109794 0.219839 7.979699 1.187626 0.385368 4.622064 -1.758143 -0.292017 -9.151269 -5.107569 -80.138367 -176.132248 21.546659 45.371071 -12.451846 0.853475 -12.258828 -52.922150 22.191980 -11.156188 4.082411 3.503531 80.061836 -177.855972 -20.807852 -44.148197 -10.560727 -1.595100 11.876853 -55.982067 -21.468077 11.386992 4.079947 
-213.703629 2.868562 446.112152 0.000000 -7.533298 0.000000 89.269379 -9.059889 87.775200 171.132248 -5.186841 149.020538 -2.591545 3.544233 -55.366257 -3.489660 -0.152757 83.997131 0.000009 0.003101 21.484749 -170.862717 5.267633 152.547714 3.358043 -3.635300 -53.920555 5.164239 -0.833489 83.716408 -0.000009 -0.003099 21.482113 -0.117541 0.137957 8.639410 0.065948 -0.175738 7.280951 0.116202 0.227203 7.942416 1.071648 0.421805 4.820466 -1.795817 -0.435616 -9.240335 -5.419995 -80.151497 -175.828201 21.354704 45.479198 -12.707534 0.773754 -12.320911 -52.870823 21.898701 -11.336149 4.091727 3.525876 79.985817 -177.825531 -20.464071 -44.183792 -11.158728 -1.592222 11.835028 -56.029026 -21.222889 11.408324 4.032524 
-213.825317 3.040453 447.603516 0.000000 -7.456151 0.000000 89.275696 -9.133757 87.736725 171.188049 -5.187250 148.772110 -2.689564 3.562877 -55.554588 -3.439389 -0.137556 84.036118 0.000009 0.003101 21.484537 -170.952835 5.214510 152.326340 3.297273 -3.674349 -54.016487 5.155710 -0.818591 83.876831 -0.000009 -0.003099 21.482096 -0.121041 0.164958 8.632409 0.015459 -0.206560 7.300009 0.111933 0.243184 7.893231 0.911853 0.461340 5.045226 -1.731884 -0.601691 -9.327097 -5.501973 -80.167267 -175.762039 21.244577 45.491402 -12.780382 0.688828 -12.368725 -52.739868 21.682522 -11.394161 4.103238 3.481289 79.937935 -177.862961 -20.261494 -44.139744 -11.528308 -1.574671 11.772248 -56.113174 -21.022810 11.451369 3.972334 
-213.936798 3.224583 449.092468 0.000000 -7.392643 0.000000 89.278893 -9.265096 87.758110 171.256332 -5.105618 148.632904 -2.888479 3.575159 -55.783550 -3.419713 -0.169192 83.998131 0.000009 0.003101 21.484407 -170.930511 5.153819 152.409424 3.216968 -3.707204 -53.944645 5.220769 -0.863086 84.041534 -0.000009 -0.003100 21.482046 -0.135340 0.177967 8.621747 -0.026641 -0.214806 7.307481 0.116159 0.283887 7.864959 0.793772 0.508960 5.217245 -1.678634 -0.708080 -9.455606 -5.288151 -80.252579 -175.995804 21.473831 45.532124 -12.413513 0.711053 -12.493365 -52.881115 21.477659 -11.368465 4.186440 3.460902 79.907776 -177.859680 -20.229170 -44.085026 -11.731175 -1.566458 11.775398 -56.180920 -20.814341 11.490052 3.915940 
-214.037735 3.415750 450.584229 0.000000 -7.349700 0.000000 89.259422 -9.290159 87.756683 171.355438 -5.045617 148.539337 -3.010282 3.584516 -55.859501 -3.350843 -0.177150 84.014198 0.000009 0.003101 21.484497 -170.794220 5.113913 152.401688 3.149237 -3.695805 -53.939686 5.202055 -0.883063 84.164246 -0.000009 -0.003100 21.482044 -0.141603 0.183034 8.631667 -0.016677 -0.225757 7.309815 0.116810 0.299986 7.854275 0.783837 0.572263 5.284401 -1.729715 -0.779039 -9.451206 -5.236773 -80.313484 -176.047577 21.714188 45.499474 -12.250280 0.654091 -12.504098 -52.775520 21.458109 -11.341813 4.206845 3.263440 79.885544 -178.050644 -20.228510 -44.120155 -11.708261 -1.579425 11.719423 -56.155563 -20.715445 11.460002 3.936770 
-214.134689 3.605210 452.067841 0.000000 -7.305957 0.000000 89.221359 -9.274635 87.744461 171.462646 -5.025125 148.445389 -3.114841 3.577287 -55.818150 -3.277137 -0.200569 84.024704 0.000009 0.003101 21.484608 -170.650116 5.096838 152.464325 3.060145 -3.689233 -53.942654 5.201125 -0.904838 84.278473 -0.000009 -0.003099 21.482067 -0.149447 0.192886 8.644760 -0.011613 -0.234606 7.320110 0.113792 0.321875 7.855195 0.790676 0.611187 5.322887 -1.836347 -0.838044 -9.433214 -5.211353 -80.359177 -176.068756 21.873661 45.513988 -12.163197 0.599556 -12.514726 -52.706547 21.445772 -11.327104 4.228591 3.058237 79.848686 -178.250351 -20.185911 -44.161907 -11.726009 -1.598863 11.656937 -56.110294 -20.639988 11.448729 3.960561 
-214.227341 3.791749 453.546967 0.000000 -7.258305 0.000000 89.197052 -9.276716 87.742218 171.499359 -5.009194 148.345123 -3.185709 3.577765 -55.723743 -3.207709 -0.231148 84.076324 0.000009 0.003101 21.484653 -170.553314 5.030558 152.310059 2.963973 -3.695428 -53.975021 5.161745 -0.889204 84.377991 -0.000009 -0.003099 21.481977 -0.154694 0.204849 8.663234 -0.021452 -0.244501 7.335038 0.099077 0.332931 7.840245 0.777233 0.665461 5.408631 -1.851449 -0.932972 -9.403438 -5.318717 -80.366562 -175.956009 21.718945 45.439228 -12.279816 0.546759 -12.501938 -52.592087 21.389734 -11.354665 4.240346 2.863104 79.819992 -178.434952 -20.071505 -44.198853 -11.867374 -1.578196 11.591649 -56.049557 -20.578463 11.442452 3.974081 
-214.314896 3.979514 455.016052 0.000000 -7.211854 0.000000 89.157921 -9.309255 87.780899 171.583649 -4.983086 148.274704 -3.268942 3.574699 -55.693707 -3.130010 -0.255722 84.156273 0.000009 0.003101 21.484840 -170.481918 4.885186 152.245956 2.864469 -3.701624 -54.010406 5.099424 -0.901910 84.407555 -0.000009 -0.003099 21.481882 -0.158359 0.212624 8.677828 -0.034396 -0.245980 7.359397 0.079904 0.357371 7.816940 0.739879 0.746701 5.464955 -1.852729 -1.044490 -9.409927 -5.555226 -80.397568 -175.715927 21.722383 45.363289 -12.233201 0.499205 -12.485784 -52.488697 21.293036 -11.332788 4.306058 2.759376 79.807686 -178.531128 -20.028576 -44.292721 -11.879525 -1.541829 11.521776 -55.988037 -20.545477 11.444281 3.968939 
-214.394791 4.169874 456.482452 0.000000 -7.169489 0.000000 89.125450 -9.287255 87.789238 171.634308 -4.998866 148.231766 -3.323247 3.572465 -55.581566 -3.071139 -0.290502 84.216072 0.000009 0.003101 21.485062 -170.404694 4.755632 152.208954 2.769289 -3.693345 -54.006371 5.066920 -0.907222 84.450211 -0.000009 -0.003099 21.481831 -0.158648 0.222429 8.692973 -0.045932 -0.235562 7.391655 0.063305 0.388850 7.797909 0.716190 0.802096 5.516789 -1.888280 -1.130906 -9.429680 -5.651196 -80.423065 -175.614990 21.767626 45.299034 -12.183395 0.458043 -12.481339 -52.461929 21.233120 -11.324030 4.361151 2.607832 79.780525 -178.678085 -19.888649 -44.324440 -11.969588 -1.497308 11.464540 -55.859333 -20.494183 11.422740 3.982047 
